Coordinates
version=1
nRows=5
nColumns=63
inDegrees=yes

Units are S.I. units (second, meters, Newtons, ...)
If the header above contains a line with 'inDegrees', this indicates whether rotational values are in degrees (yes) or radians (no).

endheader
time	pelvis_tilt	pelvis_list	pelvis_rotation	pelvis_tx	pelvis_ty	pelvis_tz	hip_flexion_r	hip_adduction_r	hip_rotation_r	knee_angle_r	knee_angle_r_beta	ankle_angle_r	subtalar_angle_r	mtp_angle_r	hip_flexion_l	hip_adduction_l	hip_rotation_l	knee_angle_l	knee_angle_l_beta	ankle_angle_l	subtalar_angle_l	mtp_angle_l	L5_S1_Flex_Ext	L5_S1_Lat_Bending	L5_S1_axial_rotation	L4_L5_Flex_Ext	L4_L5_Lat_Bending	L4_L5_axial_rotation	L3_L4_Flex_Ext	L3_L4_Lat_Bending	L3_L4_axial_rotation	L2_L3_Flex_Ext	L2_L3_Lat_Bending	L2_L3_axial_rotation	L1_L2_Flex_Ext	L1_L2_Lat_Bending	L1_L2_axial_rotation	L1_T12_Flex_Ext	L1_T12_Lat_Bending	L1_T12_axial_rotation	Abs_r3	Abs_r2	Abs_r1	Abs_t1	Abs_t2	neck_flexion	neck_bending	neck_rotation	arm_flex_r	arm_add_r	arm_rot_r	elbow_flex_r	pro_sup_r	wrist_flex_r	wrist_dev_r	arm_flex_l	arm_add_l	arm_rot_l	elbow_flex_l	pro_sup_l	wrist_flex_l	wrist_dev_l
      1.43859649	      5.52314360	     -2.66012824	     90.92682870	      0.12843832	      0.76721202	      0.87711738	     12.14156200	      1.94072421	     -6.70052061	     12.10895608	      0.21134115	     31.84605851	     17.05309829	      0.00000000	     11.58118002	     -1.47293419	     -2.33498978	     12.71013293	      0.22183367	     32.75108585	      0.33413278	      0.00000000	      0.37172797	      0.23648787	      1.01921485	      0.69033602	      0.31452887	      1.08291578	      0.61071189	      0.57499662	      1.08291578	      0.42484790	      0.57499662	      0.89181299	      0.34518660	      0.48224607	      0.82811206	      0.21240536	      0.36631972	      0.76441114	      2.65521575	      2.67519813	      5.66856722	      0.00000000	      0.00000000	     26.99248403	      3.11478288	      9.95549259	      6.07390531	    -14.75340619	      1.90488435	     92.11232385	     79.44234168	    -17.69814679	     18.51273477	      7.79539401	    -16.64274335	     23.03531397	     63.79425962	     82.78480749	     -3.06303334	     10.79600285
      1.45614035	      5.56311403	     -2.61587852	     90.87165830	      0.12743954	      0.76690038	      0.87854982	     12.34287084	      1.92205471	     -6.66515098	     12.33324533	      0.21525574	     32.03944263	     17.08154245	      0.00000000	     11.82612272	     -1.49296968	     -2.70477439	     12.98476634	      0.22662693	     32.86095989	      0.48069758	      0.00000000	      0.34070372	      0.27716523	      0.99520240	      0.63272089	      0.36862975	      1.05740255	      0.55974215	      0.67389953	      1.05740255	      0.38939029	      0.67389953	      0.87080210	      0.31637748	      0.56519533	      0.80860195	      0.19467811	      0.42932893	      0.74640180	      2.43361264	      3.13534846	      5.53501718	      0.00000000	      0.00000000	     26.42643336	      1.78897044	     10.05656004	      6.27632005	    -15.17068275	      3.03412991	     91.07734291	     80.31406527	    -17.05381577	     17.65301588	      8.07624029	    -15.95009332	     23.24460953	     64.80002653	     80.81338344	     -3.10209539	     12.57189164
      1.47368421	      5.48379627	     -2.62352711	     91.10321462	      0.12690480	      0.76637927	      0.87976642	     12.45300393	      1.79198359	     -6.84420049	     12.36089708	      0.21573835	     32.19243907	     17.04140888	      0.00000000	     12.12111746	     -1.47432409	     -3.53211090	     13.27945322	      0.23177018	     33.01579881	      1.63924779	      0.00000000	      0.31263777	      0.29686969	      0.86819963	      0.58059960	      0.39483668	      0.92246210	      0.51363259	      0.72180895	      0.92246210	      0.35731371	      0.72180895	      0.75967467	      0.29031543	      0.60537666	      0.70541220	      0.17864122	      0.45985114	      0.65114972	      2.23314032	      3.35824925	      4.82866586	      0.00000000	      0.00000000	     26.00371042	      1.32550438	     11.21101454	      6.48606291	    -14.88104900	      4.51665967	     90.06143575	     81.83938585	    -16.45714300	     16.01310348	      7.94058780	    -15.90058702	     24.14236626	     66.42991594	     77.04736647	     -4.81032432	     13.91686476
      1.49122807	      5.34727328	     -2.60129307	     91.20025605	      0.12676714	      0.76588926	      0.88117440	     12.53080955	      1.63936758	     -6.90178963	     12.41097044	      0.21661230	     32.29100604	     16.96993792	      0.00000000	     12.41774673	     -1.49117388	     -4.93488807	     13.74693066	      0.23992920	     33.18599066	      3.18154200	      0.00000000	      0.28651047	      0.30746802	      0.78173356	      0.53207859	      0.40893247	      0.83059191	      0.47070805	      0.74757775	      0.83059191	      0.32745281	      0.74757775	      0.68401686	      0.26605362	      0.62698879	      0.63515852	      0.16371208	      0.47626797	      0.58630017	      2.04651561	      3.47813976	      4.34776753	      0.00000000	      0.00000000	     25.29533242	      0.81944157	     12.08503014	      7.14024581	    -14.70032281	      6.68929071	     88.57751710	     83.54141131	    -15.94788433	     13.89118711	      8.14509319	    -16.16954539	     26.37224547	     67.54493950	     76.61242917	     -7.59986684	     11.98401040
      1.50877193	      5.16251280	     -2.52454135	     91.33671587	      0.12664584	      0.76537048	      0.88228133	     12.51972126	      1.43269133	     -6.99170942	     12.49102157	      0.21800945	     32.44738991	     16.86687821	      0.00000000	     12.61013826	     -1.35719858	     -5.45037966	     14.20195736	      0.24787092	     33.14168811	      3.51353878	      0.00000000	      0.25825696	      0.30747210	      0.73585385	      0.47960899	      0.40893790	      0.78184472	      0.42429035	      0.74758767	      0.78184472	      0.29516187	      0.74758767	      0.64387212	      0.23981741	      0.62699712	      0.59788126	      0.14756802	      0.47627429	      0.55189039	      1.84470361	      3.47818594	      4.09259838	      0.00000000	      0.00000000	     24.76290420	      0.18328839	     12.55167163	      8.03001820	    -14.31009121	      9.00463135	     86.19387032	     85.57889184	    -15.19566388	      9.67277957	      8.46869045	    -16.05808750	     28.26887160	     68.20910660	     78.87720677	     -8.72486605	      9.42676362
